<mxfile host="" modified="2021-01-11T14:38:24.040Z" agent="5.0 (Macintosh; Intel Mac OS X 10_16_0) AppleWebKit/537.36 (KHTML, like Gecko) Chrome/81.0.4044.113 Safari/537.36" etag="8FiWh0AQdGEzQ7qzxvr8" version="13.7.9" type="embed"><diagram id="R2lEEEUBdFMjLlhIrx00" name="Page-1"><mxGraphModel dx="586" dy="494" grid="1" gridSize="10" guides="1" tooltips="1" connect="1" arrows="1" fold="1" page="1" pageScale="1" pageWidth="850" pageHeight="1100" math="0" shadow="0" extFonts="Permanent Marker^https://fonts.googleapis.com/css?family=Permanent+Marker"><root><mxCell id="0"/><mxCell id="1" parent="0"/><mxCell id="C-vyLk0tnHw3VtMMgP7b-2" value="WordBook" style="shape=table;startSize=30;container=1;collapsible=1;childLayout=tableLayout;fixedRows=1;rowLines=0;fontStyle=1;align=center;resizeLast=1;" parent="1" vertex="1"><mxGeometry x="520" y="720" width="240" height="200" as="geometry"/></mxCell><mxCell id="C-vyLk0tnHw3VtMMgP7b-3" value="" style="shape=partialRectangle;collapsible=0;dropTarget=0;pointerEvents=0;fillColor=none;points=[[0,0.5],[1,0.5]];portConstraint=eastwest;top=0;left=0;right=0;bottom=1;" parent="C-vyLk0tnHw3VtMMgP7b-2" vertex="1"><mxGeometry y="30" width="240" height="30" as="geometry"/></mxCell><mxCell id="C-vyLk0tnHw3VtMMgP7b-4" value="PK" style="shape=partialRectangle;overflow=hidden;connectable=0;fillColor=none;top=0;left=0;bottom=0;right=0;fontStyle=1;" parent="C-vyLk0tnHw3VtMMgP7b-3" vertex="1"><mxGeometry width="30" height="30" as="geometry"/></mxCell><mxCell id="C-vyLk0tnHw3VtMMgP7b-5" value="id Long Auto" style="shape=partialRectangle;overflow=hidden;connectable=0;fillColor=none;top=0;left=0;bottom=0;right=0;align=left;spacingLeft=6;fontStyle=5;" parent="C-vyLk0tnHw3VtMMgP7b-3" vertex="1"><mxGeometry x="30" width="210" height="30" as="geometry"/></mxCell><mxCell id="C-vyLk0tnHw3VtMMgP7b-6" value="" style="shape=partialRectangle;collapsible=0;dropTarget=0;pointerEvents=0;fillColor=none;points=[[0,0.5],[1,0.5]];portConstraint=eastwest;top=0;left=0;right=0;bottom=0;" parent="C-vyLk0tnHw3VtMMgP7b-2" vertex="1"><mxGeometry y="60" width="240" height="30" as="geometry"/></mxCell><mxCell id="C-vyLk0tnHw3VtMMgP7b-7" value="" style="shape=partialRectangle;overflow=hidden;connectable=0;fillColor=none;top=0;left=0;bottom=0;right=0;" parent="C-vyLk0tnHw3VtMMgP7b-6" vertex="1"><mxGeometry width="30" height="30" as="geometry"/></mxCell><mxCell id="C-vyLk0tnHw3VtMMgP7b-8" value="isUsing Boolean NOT NULL" style="shape=partialRectangle;overflow=hidden;connectable=0;fillColor=none;top=0;left=0;bottom=0;right=0;align=left;spacingLeft=6;" parent="C-vyLk0tnHw3VtMMgP7b-6" vertex="1"><mxGeometry x="30" width="210" height="30" as="geometry"/></mxCell><mxCell id="C-vyLk0tnHw3VtMMgP7b-9" value="" style="shape=partialRectangle;collapsible=0;dropTarget=0;pointerEvents=0;fillColor=none;points=[[0,0.5],[1,0.5]];portConstraint=eastwest;top=0;left=0;right=0;bottom=0;" parent="C-vyLk0tnHw3VtMMgP7b-2" vertex="1"><mxGeometry y="90" width="240" height="30" as="geometry"/></mxCell><mxCell id="C-vyLk0tnHw3VtMMgP7b-10" value="" style="shape=partialRectangle;overflow=hidden;connectable=0;fillColor=none;top=0;left=0;bottom=0;right=0;" parent="C-vyLk0tnHw3VtMMgP7b-9" vertex="1"><mxGeometry width="30" height="30" as="geometry"/></mxCell><mxCell id="C-vyLk0tnHw3VtMMgP7b-11" value="String name NOT NULL" style="shape=partialRectangle;overflow=hidden;connectable=0;fillColor=none;top=0;left=0;bottom=0;right=0;align=left;spacingLeft=6;" parent="C-vyLk0tnHw3VtMMgP7b-9" vertex="1"><mxGeometry x="30" width="210" height="30" as="geometry"/></mxCell><mxCell id="I75-pqiJcvE2lzbX0p5q-72" value="" style="shape=partialRectangle;collapsible=0;dropTarget=0;pointerEvents=0;fillColor=none;top=0;left=0;bottom=0;right=0;points=[[0,0.5],[1,0.5]];portConstraint=eastwest;" parent="C-vyLk0tnHw3VtMMgP7b-2" vertex="1"><mxGeometry y="120" width="240" height="30" as="geometry"/></mxCell><mxCell id="I75-pqiJcvE2lzbX0p5q-73" value="" style="shape=partialRectangle;connectable=0;fillColor=none;top=0;left=0;bottom=0;right=0;editable=1;overflow=hidden;" parent="I75-pqiJcvE2lzbX0p5q-72" vertex="1"><mxGeometry width="30" height="30" as="geometry"/></mxCell><mxCell id="I75-pqiJcvE2lzbX0p5q-74" value="DTYPE String NOT NULL" style="shape=partialRectangle;connectable=0;fillColor=none;top=0;left=0;bottom=0;right=0;align=left;spacingLeft=6;overflow=hidden;" parent="I75-pqiJcvE2lzbX0p5q-72" vertex="1"><mxGeometry x="30" width="210" height="30" as="geometry"/></mxCell><mxCell id="C-vyLk0tnHw3VtMMgP7b-13" value="UserWordBook" style="shape=table;startSize=30;container=1;collapsible=1;childLayout=tableLayout;fixedRows=1;rowLines=0;fontStyle=1;align=center;resizeLast=1;" parent="1" vertex="1"><mxGeometry x="200" y="720" width="240" height="120" as="geometry"/></mxCell><mxCell id="C-vyLk0tnHw3VtMMgP7b-14" value="" style="shape=partialRectangle;collapsible=0;dropTarget=0;pointerEvents=0;fillColor=none;points=[[0,0.5],[1,0.5]];portConstraint=eastwest;top=0;left=0;right=0;bottom=1;" parent="C-vyLk0tnHw3VtMMgP7b-13" vertex="1"><mxGeometry y="30" width="240" height="30" as="geometry"/></mxCell><mxCell id="C-vyLk0tnHw3VtMMgP7b-15" value="PK, FK" style="shape=partialRectangle;overflow=hidden;connectable=0;fillColor=none;top=0;left=0;bottom=0;right=0;fontStyle=1;" parent="C-vyLk0tnHw3VtMMgP7b-14" vertex="1"><mxGeometry width="50" height="30" as="geometry"/></mxCell><mxCell id="C-vyLk0tnHw3VtMMgP7b-16" value="wordBook_id Long" style="shape=partialRectangle;overflow=hidden;connectable=0;fillColor=none;top=0;left=0;bottom=0;right=0;align=left;spacingLeft=6;fontStyle=5;" parent="C-vyLk0tnHw3VtMMgP7b-14" vertex="1"><mxGeometry x="50" width="190" height="30" as="geometry"/></mxCell><mxCell id="C-vyLk0tnHw3VtMMgP7b-17" value="" style="shape=partialRectangle;collapsible=0;dropTarget=0;pointerEvents=0;fillColor=none;points=[[0,0.5],[1,0.5]];portConstraint=eastwest;top=0;left=0;right=0;bottom=0;" parent="C-vyLk0tnHw3VtMMgP7b-13" vertex="1"><mxGeometry y="60" width="240" height="30" as="geometry"/></mxCell><mxCell id="C-vyLk0tnHw3VtMMgP7b-18" value="FK" style="shape=partialRectangle;overflow=hidden;connectable=0;fillColor=none;top=0;left=0;bottom=0;right=0;" parent="C-vyLk0tnHw3VtMMgP7b-17" vertex="1"><mxGeometry width="50" height="30" as="geometry"/></mxCell><mxCell id="C-vyLk0tnHw3VtMMgP7b-19" value="user_id Long NOT NULL" style="shape=partialRectangle;overflow=hidden;connectable=0;fillColor=none;top=0;left=0;bottom=0;right=0;align=left;spacingLeft=6;" parent="C-vyLk0tnHw3VtMMgP7b-17" vertex="1"><mxGeometry x="50" width="190" height="30" as="geometry"/></mxCell><mxCell id="C-vyLk0tnHw3VtMMgP7b-23" value="User" style="shape=table;startSize=30;container=1;collapsible=1;childLayout=tableLayout;fixedRows=1;rowLines=0;fontStyle=1;align=center;resizeLast=1;" parent="1" vertex="1"><mxGeometry x="200" y="440" width="240" height="200" as="geometry"/></mxCell><mxCell id="C-vyLk0tnHw3VtMMgP7b-24" value="" style="shape=partialRectangle;collapsible=0;dropTarget=0;pointerEvents=0;fillColor=none;points=[[0,0.5],[1,0.5]];portConstraint=eastwest;top=0;left=0;right=0;bottom=1;" parent="C-vyLk0tnHw3VtMMgP7b-23" vertex="1"><mxGeometry y="30" width="240" height="30" as="geometry"/></mxCell><mxCell id="C-vyLk0tnHw3VtMMgP7b-25" value="PK" style="shape=partialRectangle;overflow=hidden;connectable=0;fillColor=none;top=0;left=0;bottom=0;right=0;fontStyle=1;" parent="C-vyLk0tnHw3VtMMgP7b-24" vertex="1"><mxGeometry width="30" height="30" as="geometry"/></mxCell><mxCell id="C-vyLk0tnHw3VtMMgP7b-26" value="id Long Auto 1" style="shape=partialRectangle;overflow=hidden;connectable=0;fillColor=none;top=0;left=0;bottom=0;right=0;align=left;spacingLeft=6;fontStyle=5;" parent="C-vyLk0tnHw3VtMMgP7b-24" vertex="1"><mxGeometry x="30" width="210" height="30" as="geometry"/></mxCell><mxCell id="I75-pqiJcvE2lzbX0p5q-58" value="" style="shape=partialRectangle;collapsible=0;dropTarget=0;pointerEvents=0;fillColor=none;top=0;left=0;bottom=0;right=0;points=[[0,0.5],[1,0.5]];portConstraint=eastwest;" parent="C-vyLk0tnHw3VtMMgP7b-23" vertex="1"><mxGeometry y="60" width="240" height="30" as="geometry"/></mxCell><mxCell id="I75-pqiJcvE2lzbX0p5q-59" value="" style="shape=partialRectangle;connectable=0;fillColor=none;top=0;left=0;bottom=0;right=0;editable=1;overflow=hidden;" parent="I75-pqiJcvE2lzbX0p5q-58" vertex="1"><mxGeometry width="30" height="30" as="geometry"/></mxCell><mxCell id="I75-pqiJcvE2lzbX0p5q-60" value="isUsing Boolean NOT NULL" style="shape=partialRectangle;connectable=0;fillColor=none;top=0;left=0;bottom=0;right=0;align=left;spacingLeft=6;overflow=hidden;" parent="I75-pqiJcvE2lzbX0p5q-58" vertex="1"><mxGeometry x="30" width="210" height="30" as="geometry"/></mxCell><mxCell id="C-vyLk0tnHw3VtMMgP7b-27" value="" style="shape=partialRectangle;collapsible=0;dropTarget=0;pointerEvents=0;fillColor=none;points=[[0,0.5],[1,0.5]];portConstraint=eastwest;top=0;left=0;right=0;bottom=0;" parent="C-vyLk0tnHw3VtMMgP7b-23" vertex="1"><mxGeometry y="90" width="240" height="30" as="geometry"/></mxCell><mxCell id="C-vyLk0tnHw3VtMMgP7b-28" value="" style="shape=partialRectangle;overflow=hidden;connectable=0;fillColor=none;top=0;left=0;bottom=0;right=0;" parent="C-vyLk0tnHw3VtMMgP7b-27" vertex="1"><mxGeometry width="30" height="30" as="geometry"/></mxCell><mxCell id="C-vyLk0tnHw3VtMMgP7b-29" value="name String NOT NULL" style="shape=partialRectangle;overflow=hidden;connectable=0;fillColor=none;top=0;left=0;bottom=0;right=0;align=left;spacingLeft=6;" parent="C-vyLk0tnHw3VtMMgP7b-27" vertex="1"><mxGeometry x="30" width="210" height="30" as="geometry"/></mxCell><mxCell id="I75-pqiJcvE2lzbX0p5q-37" value="" style="shape=partialRectangle;collapsible=0;dropTarget=0;pointerEvents=0;fillColor=none;top=0;left=0;bottom=0;right=0;points=[[0,0.5],[1,0.5]];portConstraint=eastwest;" parent="C-vyLk0tnHw3VtMMgP7b-23" vertex="1"><mxGeometry y="120" width="240" height="30" as="geometry"/></mxCell><mxCell id="I75-pqiJcvE2lzbX0p5q-38" value="" style="shape=partialRectangle;connectable=0;fillColor=none;top=0;left=0;bottom=0;right=0;editable=1;overflow=hidden;" parent="I75-pqiJcvE2lzbX0p5q-37" vertex="1"><mxGeometry width="30" height="30" as="geometry"/></mxCell><mxCell id="I75-pqiJcvE2lzbX0p5q-39" value="email String NOT NULL" style="shape=partialRectangle;connectable=0;fillColor=none;top=0;left=0;bottom=0;right=0;align=left;spacingLeft=6;overflow=hidden;" parent="I75-pqiJcvE2lzbX0p5q-37" vertex="1"><mxGeometry x="30" width="210" height="30" as="geometry"/></mxCell><mxCell id="I75-pqiJcvE2lzbX0p5q-44" value="" style="shape=partialRectangle;collapsible=0;dropTarget=0;pointerEvents=0;fillColor=none;top=0;left=0;bottom=0;right=0;points=[[0,0.5],[1,0.5]];portConstraint=eastwest;" parent="C-vyLk0tnHw3VtMMgP7b-23" vertex="1"><mxGeometry y="150" width="240" height="30" as="geometry"/></mxCell><mxCell id="I75-pqiJcvE2lzbX0p5q-45" value="" style="shape=partialRectangle;connectable=0;fillColor=none;top=0;left=0;bottom=0;right=0;editable=1;overflow=hidden;" parent="I75-pqiJcvE2lzbX0p5q-44" vertex="1"><mxGeometry width="30" height="30" as="geometry"/></mxCell><mxCell id="I75-pqiJcvE2lzbX0p5q-46" value="pw String NOT NULL" style="shape=partialRectangle;connectable=0;fillColor=none;top=0;left=0;bottom=0;right=0;align=left;spacingLeft=6;overflow=hidden;" parent="I75-pqiJcvE2lzbX0p5q-44" vertex="1"><mxGeometry x="30" width="210" height="30" as="geometry"/></mxCell><mxCell id="I75-pqiJcvE2lzbX0p5q-1" value="StudyGroupWordBook" style="shape=table;startSize=30;container=1;collapsible=1;childLayout=tableLayout;fixedRows=1;rowLines=0;fontStyle=1;align=center;resizeLast=1;" parent="1" vertex="1"><mxGeometry x="840" y="720" width="240" height="120" as="geometry"/></mxCell><mxCell id="I75-pqiJcvE2lzbX0p5q-2" value="" style="shape=partialRectangle;collapsible=0;dropTarget=0;pointerEvents=0;fillColor=none;points=[[0,0.5],[1,0.5]];portConstraint=eastwest;top=0;left=0;right=0;bottom=1;" parent="I75-pqiJcvE2lzbX0p5q-1" vertex="1"><mxGeometry y="30" width="240" height="30" as="geometry"/></mxCell><mxCell id="I75-pqiJcvE2lzbX0p5q-3" value="PK,FK" style="shape=partialRectangle;overflow=hidden;connectable=0;fillColor=none;top=0;left=0;bottom=0;right=0;fontStyle=1;" parent="I75-pqiJcvE2lzbX0p5q-2" vertex="1"><mxGeometry width="50" height="30" as="geometry"/></mxCell><mxCell id="I75-pqiJcvE2lzbX0p5q-4" value="wordBook_id Long" style="shape=partialRectangle;overflow=hidden;connectable=0;fillColor=none;top=0;left=0;bottom=0;right=0;align=left;spacingLeft=6;fontStyle=5;" parent="I75-pqiJcvE2lzbX0p5q-2" vertex="1"><mxGeometry x="50" width="190" height="30" as="geometry"/></mxCell><mxCell id="I75-pqiJcvE2lzbX0p5q-5" value="" style="shape=partialRectangle;collapsible=0;dropTarget=0;pointerEvents=0;fillColor=none;points=[[0,0.5],[1,0.5]];portConstraint=eastwest;top=0;left=0;right=0;bottom=0;" parent="I75-pqiJcvE2lzbX0p5q-1" vertex="1"><mxGeometry y="60" width="240" height="30" as="geometry"/></mxCell><mxCell id="I75-pqiJcvE2lzbX0p5q-6" value="FK" style="shape=partialRectangle;overflow=hidden;connectable=0;fillColor=none;top=0;left=0;bottom=0;right=0;" parent="I75-pqiJcvE2lzbX0p5q-5" vertex="1"><mxGeometry width="50" height="30" as="geometry"/></mxCell><mxCell id="I75-pqiJcvE2lzbX0p5q-7" value="studygroup_id Long NOT NULL" style="shape=partialRectangle;overflow=hidden;connectable=0;fillColor=none;top=0;left=0;bottom=0;right=0;align=left;spacingLeft=6;" parent="I75-pqiJcvE2lzbX0p5q-5" vertex="1"><mxGeometry x="50" width="190" height="30" as="geometry"/></mxCell><mxCell id="I75-pqiJcvE2lzbX0p5q-8" value="" style="shape=partialRectangle;collapsible=0;dropTarget=0;pointerEvents=0;fillColor=none;points=[[0,0.5],[1,0.5]];portConstraint=eastwest;top=0;left=0;right=0;bottom=0;" parent="I75-pqiJcvE2lzbX0p5q-1" vertex="1"><mxGeometry y="90" width="240" height="30" as="geometry"/></mxCell><mxCell id="I75-pqiJcvE2lzbX0p5q-9" value="" style="shape=partialRectangle;overflow=hidden;connectable=0;fillColor=none;top=0;left=0;bottom=0;right=0;" parent="I75-pqiJcvE2lzbX0p5q-8" vertex="1"><mxGeometry width="50" height="30" as="geometry"/></mxCell><mxCell id="I75-pqiJcvE2lzbX0p5q-10" value="" style="shape=partialRectangle;overflow=hidden;connectable=0;fillColor=none;top=0;left=0;bottom=0;right=0;align=left;spacingLeft=6;" parent="I75-pqiJcvE2lzbX0p5q-8" vertex="1"><mxGeometry x="50" width="190" height="30" as="geometry"/></mxCell><mxCell id="I75-pqiJcvE2lzbX0p5q-11" value="Study" style="shape=table;startSize=30;container=1;collapsible=1;childLayout=tableLayout;fixedRows=1;rowLines=0;fontStyle=1;align=center;resizeLast=1;" parent="1" vertex="1"><mxGeometry x="520" y="440" width="240" height="160" as="geometry"/></mxCell><mxCell id="I75-pqiJcvE2lzbX0p5q-12" value="" style="shape=partialRectangle;collapsible=0;dropTarget=0;pointerEvents=0;fillColor=none;points=[[0,0.5],[1,0.5]];portConstraint=eastwest;top=0;left=0;right=0;bottom=1;" parent="I75-pqiJcvE2lzbX0p5q-11" vertex="1"><mxGeometry y="30" width="240" height="30" as="geometry"/></mxCell><mxCell id="I75-pqiJcvE2lzbX0p5q-13" value="PK" style="shape=partialRectangle;overflow=hidden;connectable=0;fillColor=none;top=0;left=0;bottom=0;right=0;fontStyle=1;" parent="I75-pqiJcvE2lzbX0p5q-12" vertex="1"><mxGeometry width="30" height="30" as="geometry"/></mxCell><mxCell id="I75-pqiJcvE2lzbX0p5q-14" value="id Long Auto" style="shape=partialRectangle;overflow=hidden;connectable=0;fillColor=none;top=0;left=0;bottom=0;right=0;align=left;spacingLeft=6;fontStyle=5;" parent="I75-pqiJcvE2lzbX0p5q-12" vertex="1"><mxGeometry x="30" width="210" height="30" as="geometry"/></mxCell><mxCell id="I75-pqiJcvE2lzbX0p5q-15" value="" style="shape=partialRectangle;collapsible=0;dropTarget=0;pointerEvents=0;fillColor=none;points=[[0,0.5],[1,0.5]];portConstraint=eastwest;top=0;left=0;right=0;bottom=0;" parent="I75-pqiJcvE2lzbX0p5q-11" vertex="1"><mxGeometry y="60" width="240" height="30" as="geometry"/></mxCell><mxCell id="I75-pqiJcvE2lzbX0p5q-16" value="FK" style="shape=partialRectangle;overflow=hidden;connectable=0;fillColor=none;top=0;left=0;bottom=0;right=0;" parent="I75-pqiJcvE2lzbX0p5q-15" vertex="1"><mxGeometry width="30" height="30" as="geometry"/></mxCell><mxCell id="I75-pqiJcvE2lzbX0p5q-17" value="user_id Long " style="shape=partialRectangle;overflow=hidden;connectable=0;fillColor=none;top=0;left=0;bottom=0;right=0;align=left;spacingLeft=6;" parent="I75-pqiJcvE2lzbX0p5q-15" vertex="1"><mxGeometry x="30" width="210" height="30" as="geometry"/></mxCell><mxCell id="I75-pqiJcvE2lzbX0p5q-55" value="" style="shape=partialRectangle;collapsible=0;dropTarget=0;pointerEvents=0;fillColor=none;top=0;left=0;bottom=0;right=0;points=[[0,0.5],[1,0.5]];portConstraint=eastwest;" parent="I75-pqiJcvE2lzbX0p5q-11" vertex="1"><mxGeometry y="90" width="240" height="30" as="geometry"/></mxCell><mxCell id="I75-pqiJcvE2lzbX0p5q-56" value="FK" style="shape=partialRectangle;connectable=0;fillColor=none;top=0;left=0;bottom=0;right=0;editable=1;overflow=hidden;" parent="I75-pqiJcvE2lzbX0p5q-55" vertex="1"><mxGeometry width="30" height="30" as="geometry"/></mxCell><mxCell id="I75-pqiJcvE2lzbX0p5q-57" value="studygroup_id Long" style="shape=partialRectangle;connectable=0;fillColor=none;top=0;left=0;bottom=0;right=0;align=left;spacingLeft=6;overflow=hidden;" parent="I75-pqiJcvE2lzbX0p5q-55" vertex="1"><mxGeometry x="30" width="210" height="30" as="geometry"/></mxCell><mxCell id="I75-pqiJcvE2lzbX0p5q-18" value="StudyGroup" style="shape=table;startSize=30;container=1;collapsible=1;childLayout=tableLayout;fixedRows=1;rowLines=0;fontStyle=1;align=center;resizeLast=1;" parent="1" vertex="1"><mxGeometry x="839" y="440" width="241" height="160" as="geometry"/></mxCell><mxCell id="I75-pqiJcvE2lzbX0p5q-19" value="" style="shape=partialRectangle;collapsible=0;dropTarget=0;pointerEvents=0;fillColor=none;points=[[0,0.5],[1,0.5]];portConstraint=eastwest;top=0;left=0;right=0;bottom=1;" parent="I75-pqiJcvE2lzbX0p5q-18" vertex="1"><mxGeometry y="30" width="241" height="30" as="geometry"/></mxCell><mxCell id="I75-pqiJcvE2lzbX0p5q-20" value="PK" style="shape=partialRectangle;overflow=hidden;connectable=0;fillColor=none;top=0;left=0;bottom=0;right=0;fontStyle=1;" parent="I75-pqiJcvE2lzbX0p5q-19" vertex="1"><mxGeometry width="30" height="30" as="geometry"/></mxCell><mxCell id="I75-pqiJcvE2lzbX0p5q-21" value="id Long Auto" style="shape=partialRectangle;overflow=hidden;connectable=0;fillColor=none;top=0;left=0;bottom=0;right=0;align=left;spacingLeft=6;fontStyle=5;" parent="I75-pqiJcvE2lzbX0p5q-19" vertex="1"><mxGeometry x="30" width="211" height="30" as="geometry"/></mxCell><mxCell id="I75-pqiJcvE2lzbX0p5q-66" value="" style="shape=partialRectangle;collapsible=0;dropTarget=0;pointerEvents=0;fillColor=none;top=0;left=0;bottom=0;right=0;points=[[0,0.5],[1,0.5]];portConstraint=eastwest;" parent="I75-pqiJcvE2lzbX0p5q-18" vertex="1"><mxGeometry y="60" width="241" height="30" as="geometry"/></mxCell><mxCell id="I75-pqiJcvE2lzbX0p5q-67" value="" style="shape=partialRectangle;connectable=0;fillColor=none;top=0;left=0;bottom=0;right=0;editable=1;overflow=hidden;" parent="I75-pqiJcvE2lzbX0p5q-66" vertex="1"><mxGeometry width="30" height="30" as="geometry"/></mxCell><mxCell id="I75-pqiJcvE2lzbX0p5q-68" value="isUsing Boolean NOT NULL" style="shape=partialRectangle;connectable=0;fillColor=none;top=0;left=0;bottom=0;right=0;align=left;spacingLeft=6;overflow=hidden;" parent="I75-pqiJcvE2lzbX0p5q-66" vertex="1"><mxGeometry x="30" width="211" height="30" as="geometry"/></mxCell><mxCell id="I75-pqiJcvE2lzbX0p5q-69" value="" style="shape=partialRectangle;collapsible=0;dropTarget=0;pointerEvents=0;fillColor=none;top=0;left=0;bottom=0;right=0;points=[[0,0.5],[1,0.5]];portConstraint=eastwest;" parent="I75-pqiJcvE2lzbX0p5q-18" vertex="1"><mxGeometry y="90" width="241" height="30" as="geometry"/></mxCell><mxCell id="I75-pqiJcvE2lzbX0p5q-70" value="" style="shape=partialRectangle;connectable=0;fillColor=none;top=0;left=0;bottom=0;right=0;editable=1;overflow=hidden;" parent="I75-pqiJcvE2lzbX0p5q-69" vertex="1"><mxGeometry width="30" height="30" as="geometry"/></mxCell><mxCell id="I75-pqiJcvE2lzbX0p5q-71" value="name String NOT NULL" style="shape=partialRectangle;connectable=0;fillColor=none;top=0;left=0;bottom=0;right=0;align=left;spacingLeft=6;overflow=hidden;" parent="I75-pqiJcvE2lzbX0p5q-69" vertex="1"><mxGeometry x="30" width="211" height="30" as="geometry"/></mxCell><mxCell id="I75-pqiJcvE2lzbX0p5q-25" value="Word" style="shape=table;startSize=30;container=1;collapsible=1;childLayout=tableLayout;fixedRows=1;rowLines=0;fontStyle=1;align=center;resizeLast=1;" parent="1" vertex="1"><mxGeometry x="520" y="1000" width="240" height="150" as="geometry"/></mxCell><mxCell id="I75-pqiJcvE2lzbX0p5q-26" value="" style="shape=partialRectangle;collapsible=0;dropTarget=0;pointerEvents=0;fillColor=none;points=[[0,0.5],[1,0.5]];portConstraint=eastwest;top=0;left=0;right=0;bottom=1;" parent="I75-pqiJcvE2lzbX0p5q-25" vertex="1"><mxGeometry y="30" width="240" height="30" as="geometry"/></mxCell><mxCell id="I75-pqiJcvE2lzbX0p5q-27" value="PK" style="shape=partialRectangle;overflow=hidden;connectable=0;fillColor=none;top=0;left=0;bottom=0;right=0;fontStyle=1;" parent="I75-pqiJcvE2lzbX0p5q-26" vertex="1"><mxGeometry width="30" height="30" as="geometry"/></mxCell><mxCell id="I75-pqiJcvE2lzbX0p5q-28" value="id Long Auto" style="shape=partialRectangle;overflow=hidden;connectable=0;fillColor=none;top=0;left=0;bottom=0;right=0;align=left;spacingLeft=6;fontStyle=5;" parent="I75-pqiJcvE2lzbX0p5q-26" vertex="1"><mxGeometry x="30" width="210" height="30" as="geometry"/></mxCell><mxCell id="I75-pqiJcvE2lzbX0p5q-29" value="" style="shape=partialRectangle;collapsible=0;dropTarget=0;pointerEvents=0;fillColor=none;points=[[0,0.5],[1,0.5]];portConstraint=eastwest;top=0;left=0;right=0;bottom=0;" parent="I75-pqiJcvE2lzbX0p5q-25" vertex="1"><mxGeometry y="60" width="240" height="30" as="geometry"/></mxCell><mxCell id="I75-pqiJcvE2lzbX0p5q-30" value="" style="shape=partialRectangle;overflow=hidden;connectable=0;fillColor=none;top=0;left=0;bottom=0;right=0;" parent="I75-pqiJcvE2lzbX0p5q-29" vertex="1"><mxGeometry width="30" height="30" as="geometry"/></mxCell><mxCell id="I75-pqiJcvE2lzbX0p5q-31" value="voca String NOT NULL" style="shape=partialRectangle;overflow=hidden;connectable=0;fillColor=none;top=0;left=0;bottom=0;right=0;align=left;spacingLeft=6;" parent="I75-pqiJcvE2lzbX0p5q-29" vertex="1"><mxGeometry x="30" width="210" height="30" as="geometry"/></mxCell><mxCell id="I75-pqiJcvE2lzbX0p5q-87" value="" style="shape=partialRectangle;collapsible=0;dropTarget=0;pointerEvents=0;fillColor=none;top=0;left=0;bottom=0;right=0;points=[[0,0.5],[1,0.5]];portConstraint=eastwest;" parent="I75-pqiJcvE2lzbX0p5q-25" vertex="1"><mxGeometry y="90" width="240" height="30" as="geometry"/></mxCell><mxCell id="I75-pqiJcvE2lzbX0p5q-88" value="" style="shape=partialRectangle;connectable=0;fillColor=none;top=0;left=0;bottom=0;right=0;editable=1;overflow=hidden;" parent="I75-pqiJcvE2lzbX0p5q-87" vertex="1"><mxGeometry width="30" height="30" as="geometry"/></mxCell><mxCell id="I75-pqiJcvE2lzbX0p5q-89" value="mean String NOT NULL" style="shape=partialRectangle;connectable=0;fillColor=none;top=0;left=0;bottom=0;right=0;align=left;spacingLeft=6;overflow=hidden;" parent="I75-pqiJcvE2lzbX0p5q-87" vertex="1"><mxGeometry x="30" width="210" height="30" as="geometry"/></mxCell><mxCell id="I75-pqiJcvE2lzbX0p5q-90" value="" style="shape=partialRectangle;collapsible=0;dropTarget=0;pointerEvents=0;fillColor=none;top=0;left=0;bottom=0;right=0;points=[[0,0.5],[1,0.5]];portConstraint=eastwest;" parent="I75-pqiJcvE2lzbX0p5q-25" vertex="1"><mxGeometry y="120" width="240" height="30" as="geometry"/></mxCell><mxCell id="I75-pqiJcvE2lzbX0p5q-91" value="FK" style="shape=partialRectangle;connectable=0;fillColor=none;top=0;left=0;bottom=0;right=0;fontStyle=0;overflow=hidden;" parent="I75-pqiJcvE2lzbX0p5q-90" vertex="1"><mxGeometry width="30" height="30" as="geometry"/></mxCell><mxCell id="I75-pqiJcvE2lzbX0p5q-92" value="wordbook_id Long NOT NULL" style="shape=partialRectangle;connectable=0;fillColor=none;top=0;left=0;bottom=0;right=0;align=left;spacingLeft=6;fontStyle=0;overflow=hidden;" parent="I75-pqiJcvE2lzbX0p5q-90" vertex="1"><mxGeometry x="30" width="210" height="30" as="geometry"/></mxCell><mxCell id="I75-pqiJcvE2lzbX0p5q-77" value="" style="edgeStyle=orthogonalEdgeStyle;fontSize=12;html=1;endArrow=ERzeroToOne;startArrow=ERmandOne;exitX=0;exitY=0.5;exitDx=0;exitDy=0;entryX=1;entryY=0.5;entryDx=0;entryDy=0;" parent="1" source="C-vyLk0tnHw3VtMMgP7b-3" target="C-vyLk0tnHw3VtMMgP7b-14" edge="1"><mxGeometry width="100" height="100" relative="1" as="geometry"><mxPoint x="700" y="650" as="sourcePoint"/><mxPoint x="470" y="650" as="targetPoint"/></mxGeometry></mxCell><mxCell id="I75-pqiJcvE2lzbX0p5q-78" value="" style="edgeStyle=orthogonalEdgeStyle;fontSize=12;html=1;endArrow=ERzeroToOne;startArrow=ERmandOne;" parent="1" source="C-vyLk0tnHw3VtMMgP7b-3" edge="1"><mxGeometry width="100" height="100" relative="1" as="geometry"><mxPoint x="761" y="840" as="sourcePoint"/><mxPoint x="840" y="765" as="targetPoint"/></mxGeometry></mxCell><mxCell id="I75-pqiJcvE2lzbX0p5q-79" value="" style="edgeStyle=orthogonalEdgeStyle;fontSize=12;html=1;endArrow=ERzeroToMany;startArrow=ERmandOne;exitX=1;exitY=0.5;exitDx=0;exitDy=0;entryX=0;entryY=0.5;entryDx=0;entryDy=0;" parent="1" source="C-vyLk0tnHw3VtMMgP7b-24" target="I75-pqiJcvE2lzbX0p5q-15" edge="1"><mxGeometry width="100" height="100" relative="1" as="geometry"><mxPoint x="451" y="485" as="sourcePoint"/><mxPoint x="581" y="450" as="targetPoint"/></mxGeometry></mxCell><mxCell id="I75-pqiJcvE2lzbX0p5q-80" value="" style="edgeStyle=orthogonalEdgeStyle;fontSize=12;html=1;endArrow=ERzeroToMany;startArrow=ERmandOne;entryX=1;entryY=0.5;entryDx=0;entryDy=0;exitX=0;exitY=0.5;exitDx=0;exitDy=0;" parent="1" source="I75-pqiJcvE2lzbX0p5q-19" target="I75-pqiJcvE2lzbX0p5q-55" edge="1"><mxGeometry width="100" height="100" relative="1" as="geometry"><mxPoint x="789" y="670" as="sourcePoint"/><mxPoint x="900" y="450" as="targetPoint"/></mxGeometry></mxCell><mxCell id="I75-pqiJcvE2lzbX0p5q-82" style="edgeStyle=orthogonalEdgeStyle;rounded=0;orthogonalLoop=1;jettySize=auto;html=1;exitX=1;exitY=0.5;exitDx=0;exitDy=0;" parent="1" edge="1"><mxGeometry relative="1" as="geometry"><mxPoint x="451" y="765" as="targetPoint"/><mxPoint x="451" y="765" as="sourcePoint"/></mxGeometry></mxCell><mxCell id="I75-pqiJcvE2lzbX0p5q-83" value="" style="edgeStyle=orthogonalEdgeStyle;fontSize=12;html=1;endArrow=ERzeroToMany;startArrow=ERmandOne;entryX=0;entryY=0.5;entryDx=0;entryDy=0;exitX=0;exitY=0.5;exitDx=0;exitDy=0;" parent="1" source="C-vyLk0tnHw3VtMMgP7b-24" target="C-vyLk0tnHw3VtMMgP7b-14" edge="1"><mxGeometry width="100" height="100" relative="1" as="geometry"><mxPoint x="140" y="490" as="sourcePoint"/><mxPoint x="100" y="830" as="targetPoint"/><Array as="points"><mxPoint x="160" y="485"/><mxPoint x="160" y="765"/></Array></mxGeometry></mxCell><mxCell id="I75-pqiJcvE2lzbX0p5q-85" value="" style="edgeStyle=orthogonalEdgeStyle;fontSize=12;html=1;endArrow=ERzeroToMany;startArrow=ERmandOne;entryX=1;entryY=0.5;entryDx=0;entryDy=0;exitX=1;exitY=0.5;exitDx=0;exitDy=0;" parent="1" source="I75-pqiJcvE2lzbX0p5q-5" target="I75-pqiJcvE2lzbX0p5q-19" edge="1"><mxGeometry width="100" height="100" relative="1" as="geometry"><mxPoint x="590" y="840" as="sourcePoint"/><mxPoint x="690" y="740" as="targetPoint"/><Array as="points"><mxPoint x="1120" y="795"/><mxPoint x="1120" y="485"/></Array></mxGeometry></mxCell><mxCell id="I75-pqiJcvE2lzbX0p5q-93" value="" style="edgeStyle=orthogonalEdgeStyle;fontSize=12;html=1;endArrow=ERmandOne;startArrow=ERmandOne;exitX=0;exitY=0.5;exitDx=0;exitDy=0;entryX=0;entryY=0.5;entryDx=0;entryDy=0;" parent="1" source="I75-pqiJcvE2lzbX0p5q-90" target="C-vyLk0tnHw3VtMMgP7b-3" edge="1"><mxGeometry width="100" height="100" relative="1" as="geometry"><mxPoint x="590" y="920" as="sourcePoint"/><mxPoint x="690" y="820" as="targetPoint"/><Array as="points"><mxPoint x="480" y="1135"/><mxPoint x="480" y="765"/></Array></mxGeometry></mxCell></root></mxGraphModel></diagram></mxfile>